<?xml version="1.0" encoding="utf-8"?>
<!-- Generator: Adobe Illustrator 22.0.0, SVG Export Plug-In . SVG Version: 6.00 Build 0)  -->
<svg version="1.1" id="svgrover_x5F_broken" xmlns="http://www.w3.org/2000/svg" xmlns:xlink="http://www.w3.org/1999/xlink"
	 x="0px" y="0px" viewBox="0 0 100 76" enable-background="new 0 0 100 76" xml:space="preserve">
<g>
	<path fill="#F05A46" d="M89.803,58.539c4.044,0,7.354,3.201,7.531,7.202c-0.112,0.067-0.248,0.141-0.353,0.199
		c-0.722,0.394-2.011,1.097-2.228,2.63c-0.142,0.021-0.296,0.039-0.421,0.054c-0.783,0.094-1.757,0.211-2.678,0.75
		c-0.831,0.487-1.316,1.07-1.637,1.455c-0.078,0.094-0.181,0.218-0.24,0.276c-0.03,0.005-0.085,0.01-0.171,0.01
		c-1.311,0-2.272,0.783-2.974,1.355c-0.102,0.083-0.231,0.188-0.347,0.277c-2.457-1.299-4.021-3.867-4.021-6.67
		C82.265,61.921,85.647,58.539,89.803,58.539 M89.803,56.654c-5.204,0-9.423,4.219-9.423,9.423c0,3.825,2.279,7.117,5.552,8.594
		c0.127,0.057,0.254,0.083,0.38,0.083c1.044,0,2.063-1.754,3.294-1.754c1.735,0,1.604-1.182,3-2c1.551-0.909,4,0,4-2
		c0-1.443,2.619-1.381,2.619-2.923C99.226,60.873,95.008,56.654,89.803,56.654L89.803,56.654z"/>
</g>
<g>
	<path fill="#F05A46" d="M51.577,58.539c4.157,0,7.538,3.382,7.538,7.538s-3.382,7.538-7.538,7.538s-7.538-3.382-7.538-7.538
		S47.42,58.539,51.577,58.539 M51.577,56.654c-5.204,0-9.423,4.219-9.423,9.423s4.219,9.423,9.423,9.423
		c5.204,0,9.423-4.219,9.423-9.423S56.781,56.654,51.577,56.654L51.577,56.654z"/>
</g>
<g>
	<path fill="none" stroke="#F05A46" stroke-width="1.8034" stroke-miterlimit="10" d="M34.671,46.834l16.333,8.502
		c0.44,0.229,0.8,0.822,0.8,1.318c0,0.496,0,0.902,0,0.902"/>
</g>
<g>
	<path fill="none" stroke="#F05A46" stroke-width="1.8034" stroke-miterlimit="10" d="M89.577,56.654c0,0,0-0.203,0-0.451
		c0-0.248-0.367-0.625-0.814-0.838L62.537,42.909c-0.448-0.213-1.215-0.323-1.705-0.245l-25.27,4.028
		c-0.49,0.078-1.271,0.282-1.737,0.453l-22.555,8.296c-0.465,0.171-0.846,0.717-0.846,1.213v5.902"/>
</g>
<g>
	<path fill="none" stroke="#F05A46" stroke-width="1.8034" stroke-miterlimit="10" d="M17.877,51.032
		c0.31,0.387,0.969,0.704,1.465,0.704h61.317c0.496,0,1.155-0.317,1.465-0.704l6.087-7.609c0.31-0.387,0.338-1.042,0.063-1.454
		l-2.606-3.91c-0.275-0.413-0.906-0.75-1.402-0.75H12.128c-0.496,0-0.902,0.406-0.902,0.902v3.607c0,0.496,0.253,1.219,0.563,1.606
		L17.877,51.032z"/>
</g>
<polygon fill="none" stroke="#F05A46" stroke-width="1.4878" stroke-miterlimit="10" points="72.047,29.542 72.047,37.308 
	69.432,37.308 69.432,30.208 "/>
<g id="rover_x5F_head">
	<polygon fill="none" stroke="#F05A46" stroke-width="1.4878" stroke-miterlimit="10" points="69.439,30.149 69.417,22.132 
		72.032,22.125 72.052,29.475 	"/>
	<g>
		<path fill="none" stroke="#F05A46" stroke-width="1.8034" stroke-miterlimit="10" d="M79.739,21.202
			c0.001,0.496-0.403,0.903-0.899,0.904l-16.231,0.045c-0.496,0.001-0.903-0.403-0.904-0.899l-0.015-5.41
			c-0.001-0.496,0.403-0.903,0.899-0.904l16.231-0.045c0.496-0.001,0.903,0.403,0.904,0.899L79.739,21.202z"/>
	</g>
	<circle fill="#F05A46" cx="76.124" cy="18.506" r="1.803"/>
	<g>
		<g>
			<path fill="#F05A46" d="M64.399,18.179c1.202-0.003,2.405-0.007,3.607-0.01c0.696-0.002,0.697-1.084,0-1.082
				c-1.202,0.003-2.405,0.007-3.607,0.01C63.703,17.099,63.702,18.181,64.399,18.179L64.399,18.179z"/>
		</g>
	</g>
	<path fill="none" stroke="#F05A46" stroke-width="0.9017" stroke-miterlimit="10" d="M70.704,14.915
		c-0.348-3.89-2.23-7.556-2.23-7.556"/>
	<circle fill="#F05A46" cx="68.473" cy="6.908" r="1.353"/>
</g>
<g id="wheel2_1_">
	<g>
		<path fill="#F05A46" d="M89.841,58.577c0.108,0.583,0.196,1.167,0.262,1.75c0.041,0.292,0.124,0.583,0.075,0.875
			c-0.052,0.292-0.133,0.583-0.338,0.875h-0.075c-0.205-0.292-0.286-0.583-0.338-0.875c-0.049-0.292,0.034-0.583,0.075-0.875
			c0.067-0.583,0.154-1.167,0.263-1.75H89.841z"/>
	</g>
	<g>
		<path fill="#F05A46" d="M83.289,69.795c0.451-0.386,0.912-0.753,1.384-1.102c0.232-0.181,0.443-0.399,0.72-0.502
			c0.279-0.101,0.571-0.177,0.927-0.145l0.038,0.065c-0.15,0.323-0.362,0.539-0.589,0.73c-0.228,0.188-0.522,0.262-0.795,0.373
			c-0.538,0.234-1.087,0.45-1.647,0.648L83.289,69.795z"/>
	</g>
	<g>
		<path fill="#F05A46" d="M96.317,62.36c-0.451,0.386-0.912,0.753-1.384,1.102c-0.232,0.181-0.443,0.399-0.72,0.502
			c-0.278,0.101-0.571,0.177-0.927,0.145l-0.037-0.065c0.15-0.323,0.362-0.539,0.589-0.73c0.228-0.188,0.522-0.262,0.795-0.373
			c0.538-0.234,1.087-0.45,1.647-0.648L96.317,62.36z"/>
	</g>
	<g>
		<path fill="#F05A46" d="M83.327,62.295c0.559,0.198,1.108,0.414,1.647,0.648c0.273,0.111,0.567,0.184,0.795,0.373
			c0.227,0.191,0.439,0.406,0.589,0.73l-0.038,0.065c-0.355,0.032-0.648-0.044-0.927-0.145c-0.277-0.103-0.488-0.322-0.72-0.502
			c-0.472-0.349-0.933-0.717-1.384-1.102L83.327,62.295z"/>
	</g>
</g>
<g id="wheel1_1_">
	<g>
		<path fill="#F05A46" d="M51.54,73.577c-0.108-0.583-0.196-1.167-0.262-1.75c-0.041-0.292-0.124-0.583-0.075-0.875
			c0.052-0.292,0.133-0.583,0.338-0.875h0.075c0.205,0.292,0.286,0.583,0.338,0.875c0.049,0.292-0.034,0.583-0.075,0.875
			c-0.067,0.583-0.154,1.167-0.263,1.75H51.54z"/>
	</g>
	<g>
		<path fill="#F05A46" d="M51.615,58.577c0.108,0.583,0.196,1.167,0.263,1.75c0.041,0.292,0.124,0.583,0.075,0.875
			c-0.052,0.292-0.133,0.583-0.338,0.875H51.54c-0.205-0.292-0.286-0.583-0.338-0.875c-0.049-0.292,0.034-0.583,0.075-0.875
			c0.067-0.583,0.154-1.167,0.262-1.75H51.615z"/>
	</g>
	<g>
		<path fill="#F05A46" d="M58.054,69.86c-0.559-0.198-1.108-0.414-1.647-0.648c-0.273-0.111-0.567-0.184-0.795-0.373
			c-0.227-0.191-0.439-0.407-0.589-0.73l0.038-0.065c0.355-0.032,0.648,0.044,0.927,0.145c0.277,0.103,0.488,0.322,0.72,0.502
			c0.472,0.349,0.933,0.717,1.384,1.102L58.054,69.86z"/>
	</g>
	<g>
		<path fill="#F05A46" d="M45.101,62.295c0.559,0.198,1.108,0.414,1.647,0.648c0.273,0.111,0.567,0.184,0.795,0.373
			c0.227,0.191,0.439,0.406,0.589,0.73l-0.037,0.065c-0.355,0.032-0.648-0.044-0.927-0.145c-0.277-0.103-0.488-0.322-0.72-0.502
			c-0.472-0.349-0.933-0.717-1.384-1.102L45.101,62.295z"/>
	</g>
	<g>
		<path fill="#F05A46" d="M58.091,62.36c-0.451,0.386-0.912,0.753-1.384,1.102c-0.232,0.181-0.443,0.399-0.72,0.502
			c-0.279,0.101-0.571,0.177-0.927,0.145l-0.038-0.065c0.15-0.323,0.362-0.539,0.589-0.73c0.228-0.188,0.522-0.262,0.795-0.373
			c0.538-0.234,1.087-0.45,1.647-0.648L58.091,62.36z"/>
	</g>
	<g>
		<path fill="#F05A46" d="M45.063,69.795c0.451-0.386,0.912-0.753,1.384-1.102c0.232-0.181,0.443-0.399,0.72-0.502
			c0.278-0.101,0.571-0.177,0.927-0.145l0.037,0.065c-0.15,0.323-0.362,0.539-0.589,0.73c-0.228,0.188-0.522,0.262-0.795,0.373
			c-0.538,0.234-1.087,0.45-1.647,0.648L45.063,69.795z"/>
	</g>
</g>
<circle fill="none" stroke="#F05A46" stroke-width="1.8034" stroke-miterlimit="10" cx="10.5" cy="63.5" r="1.5"/>
<g>
	<polygon fill="#F05A46" points="29.712,37.246 29.722,39.95 29.724,40.479 29.324,40.647 27.258,41.515 27.576,41 27.378,45 
		27.368,45.213 27.227,45.303 23,48 26.773,44.697 26.622,45 26.424,41 26.408,40.68 26.742,40.485 28.676,39.353 28.278,40.05 
		27.913,37.371 	"/>
</g>
<polygon id="rover_x5F_zap" fill="none" stroke="#F05A46" stroke-width="0.5" stroke-miterlimit="10" points="75.268,24.232 
	72.439,25.646 73.146,26.354 71.732,27.768 74.561,26.354 73.854,25.646 "/>
</svg>
